<svg width="200" height="200" viewBox="0 0 200 200" xmlns="http://www.w3.org/2000/svg"><path d="M139 158.34H12L29.25 116.4C37.9 95.4 59.02 80.78 80.82 80.78H149.71C175.3 80.78 190.53 105.13 180.38 129.78C173.4 146.66 156.48 158.34 139 158.34V158.34Z" fill="url(#paint0_linear_37_8)"/><g filter="url(#filter0_d_37_8)"><path d="M144.33 119.56H37L48.5 91H185.69C178.71 107.88 161.8 119.56 144.33 119.56Z"/></g><path d="M144.33 119.56H17.3301L34.5901 77.62C43.2401 56.62 64.3501 42 86.1601 42H155.02C180.61 42 195.84 66.35 185.69 91C178.71 107.88 161.8 119.56 144.33 119.56Z" fill="url(#paint1_linear_37_8)"/><defs><filter id="filter0_d_37_8" x="25" y="86" width="172.69" height="52.5601" filterUnits="userSpaceOnUse"><feFlood flood-opacity="0" result="BackgroundImageFix"/><feColorMatrix in="SourceAlpha" values="0 0 0 0 0 0 0 0 0 0 0 0 0 0 0 0 0 0 127 0" result="hardAlpha"/><feOffset dy="7"/><feGaussianBlur stdDeviation="6"/><feComposite in2="hardAlpha" operator="out"/><feColorMatrix values="0 0 0 0 0 0 0 0 0 0 0 0 0 0 0 0 0 0 0.3 0"/><feBlend in2="BackgroundImageFix" result="effect1_dropShadow_37_8"/><feBlend in="SourceGraphic" in2="effect1_dropShadow_37_8" result="shape"/></filter><linearGradient id="paint0_linear_37_8" x1="11.98" y1="119.56" x2="183.5" y2="119.56" gradientUnits="userSpaceOnUse"><stop stop-color="#205EFF"/><stop offset="1" stop-color="#00C9FF"/></linearGradient><linearGradient id="paint1_linear_37_8" x1="17.3001" y1="80.78" x2="188.83" y2="80.78" gradientUnits="userSpaceOnUse"><stop stop-color="#F15A24"/><stop offset="1" stop-color="#F7931E"/></linearGradient></defs></svg>